<svg xmlns="http://www.w3.org/2000/svg" viewBox="0 0 160 128" shape-rendering="crispEdges"><path fill="#51455f25" d="M15 113h134v4H15z"/><path fill="#ac8190" d="M26 78h120v7H26z"/><path fill="#51455f" d="M29 85h7v28H29z"/><path fill="#51455f" d="M133 85h7v28H133z"/><path fill="#f5dfbf" d="M29 79h114v2H29z"/><path fill="#51455f" d="M79 34h51v34H79z"/><path fill="#9acbd5" d="M83 38h43v25H83z"/><path fill="#f5dfbf" d="M87 43h14v2H87z"/><path fill="#608597" d="M87 49h28v2H87z"/><path fill="#608597" d="M87 55h20v2H87z"/><path fill="#51455f" d="M100 68h7v8H100z"/><path fill="#51455f" d="M91 75h24v3H91z"/><path fill="#d9b4bf" d="M80 80h45v3H80z"/><path fill="#688f80" d="M136 40h3v24H136z"/><path fill="#9fc9ac" d="M136 50H128v-8h5v3h3z"/><path fill="#81b69c" d="M139 57h8V47h-5v5h-3z"/><path fill="#ac8190" d="M130 63h17v5h-2v10H132V68h-2z"/><path fill="#e7a8c6" d="M132 66h11v3H132z"/><path fill="#9fc9ac" d="M15 70h16v5H15z"/><path fill="#e7a8c6" d="M17 65h16v5H17z"/><path fill="#f5dfbf" d="M18 60h13v5H18z"/><path fill="#f5dfbf" d="M115 69h9v9H115z"/><path fill="#ac8190" d="M124 71h4v5H124z"/><path fill="#51455f" d="M43 79h22v25H43z"/><path fill="#ac8190" d="M48 103h4v10H48z"/><path fill="#ac8190" d="M61 103h4v10H61z"/><path fill="#63465f" d="M46 36h17v4h4v23H43V40h3z"/><path fill="#efbd9f" d="M49 42h13v17H49z"/><path fill="#51455f" d="M60 47h2v3H60z"/><path fill="#edc778" d="M44 38h5v4H44z"/><path fill="#e7a8c6" d="M47 60h16v23H47z"/><path fill="#efbd9f" d="M51 66h22v5H51z"/><path fill="#efbd9f" d="M70 68h9v4H70z"/><path fill="#a895c3" d="M50 84h17v8H50z"/><path fill="#efbd9f" d="M61 90h6v17H61z"/><path fill="#51455f" d="M59 106h13v5H59z"/><path fill="#edc778" d="M26 31h2v3h3v2h-3v3h-2v-3h-3v-2h3z"/></svg>